<svg xmlns="http://www.w3.org/2000/svg" viewBox="0 0 800 500" fill="none">
  <rect width="800" height="500" fill="#0f1117"/>
  <rect x="0" y="0" width="800" height="52" fill="#161922"/>
  <rect x="28" y="16" width="120" height="20" rx="4" fill="#c8ff00" opacity="0.85"/>
  <rect x="620" y="14" width="72" height="24" rx="12" fill="#1e2230" stroke="#2a3040"/>
  <rect x="708" y="14" width="64" height="24" rx="12" fill="#c8ff00" opacity="0.2" stroke="#c8ff00" stroke-opacity="0.4"/>

  <rect x="28" y="76" width="180" height="396" rx="12" fill="#161922" stroke="#222836"/>
  <rect x="48" y="100" width="140" height="10" rx="3" fill="#2a3040"/>
  <rect x="48" y="124" width="110" height="8" rx="3" fill="#1e2230"/>
  <rect x="48" y="148" width="120" height="8" rx="3" fill="#1e2230"/>
  <rect x="48" y="172" width="100" height="8" rx="3" fill="#c8ff00" opacity="0.35"/>
  <rect x="48" y="196" width="115" height="8" rx="3" fill="#1e2230"/>
  <rect x="48" y="220" width="105" height="8" rx="3" fill="#1e2230"/>

  <rect x="228" y="76" width="544" height="56" rx="10" fill="#161922" stroke="#222836"/>
  <rect x="248" y="96" width="200" height="16" rx="4" fill="#eceae6" opacity="0.9"/>
  <rect x="248" y="118" width="280" height="8" rx="3" fill="#4a5060"/>

  <rect x="228" y="152" width="170" height="150" rx="10" fill="#1a1e28" stroke="#2a3040"/>
  <rect x="248" y="172" width="130" height="80" rx="6" fill="url(#lamp)"/>
  <rect x="248" y="262" width="90" height="10" rx="3" fill="#eceae6" opacity="0.8"/>
  <rect x="248" y="278" width="60" height="8" rx="3" fill="#4a5060"/>

  <rect x="414" y="152" width="170" height="150" rx="10" fill="#1a1e28" stroke="#2a3040"/>
  <rect x="434" y="172" width="130" height="80" rx="6" fill="url(#lamp2)"/>
  <rect x="434" y="262" width="90" height="10" rx="3" fill="#eceae6" opacity="0.8"/>
  <rect x="434" y="278" width="60" height="8" rx="3" fill="#4a5060"/>

  <rect x="600" y="152" width="172" height="150" rx="10" fill="#1a1e28" stroke="#2a3040"/>
  <rect x="620" y="172" width="132" height="80" rx="6" fill="url(#lamp3)"/>
  <rect x="620" y="262" width="90" height="10" rx="3" fill="#eceae6" opacity="0.8"/>
  <rect x="620" y="278" width="60" height="8" rx="3" fill="#4a5060"/>

  <rect x="228" y="322" width="544" height="150" rx="10" fill="#161922" stroke="#222836"/>
  <rect x="248" y="342" width="160" height="12" rx="3" fill="#c8ff00" opacity="0.7"/>
  <rect x="248" y="368" width="500" height="8" rx="3" fill="#2a3040"/>
  <rect x="248" y="384" width="480" height="8" rx="3" fill="#2a3040"/>
  <rect x="248" y="400" width="460" height="8" rx="3" fill="#2a3040"/>
  <rect x="248" y="424" width="100" height="28" rx="14" fill="#c8ff00" opacity="0.25" stroke="#c8ff00" stroke-opacity="0.5"/>

  <defs>
    <linearGradient id="lamp" x1="0" y1="0" x2="1" y2="1">
      <stop stop-color="#00e5c7" stop-opacity="0.5"/>
      <stop offset="1" stop-color="#c8ff00" stop-opacity="0.3"/>
    </linearGradient>
    <linearGradient id="lamp2" x1="0" y1="0" x2="1" y2="1">
      <stop stop-color="#ffd166" stop-opacity="0.45"/>
      <stop offset="1" stop-color="#ff4d6d" stop-opacity="0.25"/>
    </linearGradient>
    <linearGradient id="lamp3" x1="0" y1="0" x2="1" y2="1">
      <stop stop-color="#a78bfa" stop-opacity="0.4"/>
      <stop offset="1" stop-color="#00e5c7" stop-opacity="0.3"/>
    </linearGradient>
  </defs>
  <text x="400" y="478" fill="#5c5a66" font-family="system-ui,sans-serif" font-size="13" text-anchor="middle">Lumina  0B0;>3 A25B>B5E=8:8</text>
</svg>
